<!-- sample rectangle -->
<svg xmlns="http://www.w3.org/2000/svg" id="svg" height="300">
            <line x1="0" y1="150" x2="300" y2="150" stroke="#000720"></line>
            <line x1="150" y1="0" x2="150" y2="300" stroke="#000720"></line>
            <line x1="290" y1="148" x2="290" y2="152" stroke="#000720"></line>
            <text x="285" y="140">5</text>
            <line x1="220" y1="148" x2="220" y2="152" stroke="#000720"></line>
            <text x="210" y="140">2.5</text>
            <line x1="80" y1="148" x2="80" y2="152" stroke="#000720"></line>
            <text x="60" y="140">-2.5</text>
            <line x1="10" y1="148" x2="10" y2="152" stroke="#000720"></line>
            <text x="5" y="140">-5</text>
            <line x1="148" y1="10" x2="152" y2="10" stroke="#000720"></line>
            <text x="156" y="15">5</text>
            <line x1="148" y1="80" x2="152" y2="80" stroke="#000720"></line>
            <text x="156" y="85">2.5</text>
            <line x1="148" y1="220" x2="152" y2="220" stroke="#000720"></line>
            <text x="156" y="225">-2.5</text>
            <line x1="148" y1="290" x2="152" y2="290" stroke="#000720"></line>
            <text x="156" y="295">-5</text>
            <polygon points="300,150 295,155 295, 145" fill="#000720" stroke="#000720"></polygon>
            <polygon points="150,0 145,5 155,5" fill="#000720" stroke="#000720"></polygon>
            <rect x="66" y="150" width="84" height="84" fill-opacity="0.4" stroke="navy" fill="blue"></rect>
            <polygon points="150,150 234,150 150,108" fill-opacity="0.4" stroke="navy" fill="blue"></polygon>
            <path d="M 150 150 L 234 150 A 84 84 0 0 1 150 234 L Z" fill-opacity="0.4" stroke="navy" fill="blue"></path>
        </svg>